<svg width="120" height="33" viewBox="0 0 120 33" fill="none" xmlns="http://www.w3.org/2000/svg">
<path d="M76.3097 0H5.65173C2.53037 0 0 2.22113 0 4.96104V22.3594C0 25.0993 2.53037 27.3205 5.65173 27.3205H76.3097C79.431 27.3205 81.9614 25.0993 81.9614 22.3594V4.96104C81.9614 2.22113 79.431 0 76.3097 0Z" fill="#389F66"/>
<path d="M0 32.5333V21.6899L10.4561 26.7942L0 32.5333Z" fill="#389F66"/>
<path d="M16.2957 13.4315C17.1447 12.7105 17.6623 11.6836 17.6623 10.3726C17.6623 7.8163 15.6952 6.06836 13.2518 6.06836H7.53668V21.3628H13.6866C16.1922 21.3628 18.2007 19.5493 18.2007 16.9274C18.2007 15.3324 17.4553 14.1307 16.2957 13.4315ZM13.2518 8.8869C14.1629 8.8869 14.8048 9.60793 14.8048 10.5693C14.8048 11.5307 14.1422 12.2517 13.2518 12.2517H10.3942V8.8869H13.2518ZM13.6866 18.5442H10.3942V14.9391H13.6866C14.6598 14.9391 15.3639 15.7038 15.3639 16.7308C15.3639 17.7795 14.6598 18.5442 13.6866 18.5442Z" fill="white"/>
<path d="M22.3686 17.0585H30.1751C30.2372 16.6871 30.2786 16.3156 30.2786 15.9005C30.2786 12.6887 28.1044 10.1323 25.0398 10.1323C21.7888 10.1323 19.5732 12.645 19.5732 15.9005C19.5732 19.156 21.7681 21.6687 25.2469 21.6687C27.2347 21.6687 28.7878 20.8165 29.761 19.3308L27.6075 18.0199C27.1519 18.6535 26.3236 19.1123 25.2883 19.1123C23.8802 19.1123 22.7413 18.5005 22.3686 17.0585ZM22.3272 14.8736C22.6378 13.4752 23.611 12.6668 25.0398 12.6668C26.158 12.6668 27.2761 13.3004 27.6075 14.8736H22.3272Z" fill="white"/>
<path d="M34.2031 13.5408C34.2031 12.9508 34.7415 12.645 35.4041 12.645C36.1702 12.645 36.75 13.0601 37.0606 13.7593L39.3384 12.4483C38.5308 10.9407 37.0813 10.1323 35.4041 10.1323C33.2713 10.1323 31.4698 11.3777 31.4698 13.6063C31.4698 17.4518 36.8121 16.5778 36.8121 18.1728C36.8121 18.8064 36.2324 19.1123 35.3834 19.1123C34.348 19.1123 33.644 18.5879 33.3541 17.6921L31.0349 19.0686C31.7804 20.751 33.3127 21.6687 35.3834 21.6687C37.599 21.6687 39.5455 20.5325 39.5455 18.1728C39.5455 14.1526 34.2031 15.1576 34.2031 13.5408Z" fill="white"/>
<path d="M43.3788 17.0585H51.1853C51.2474 16.6871 51.2888 16.3156 51.2888 15.9005C51.2888 12.6887 49.1146 10.1323 46.05 10.1323C42.799 10.1323 40.5834 12.645 40.5834 15.9005C40.5834 19.156 42.7783 21.6687 46.2571 21.6687C48.2449 21.6687 49.7979 20.8165 50.7712 19.3308L48.6176 18.0199C48.1621 18.6535 47.3338 19.1123 46.2985 19.1123C44.8904 19.1123 43.7515 18.5005 43.3788 17.0585ZM43.3374 14.8736C43.648 13.4752 44.6212 12.6668 46.05 12.6668C47.1682 12.6668 48.2863 13.3004 48.6176 14.8736H43.3374Z" fill="white"/>
<path d="M60.9206 6.06836V11.7273C60.1751 10.7222 59.0777 10.1323 57.5661 10.1323C54.7914 10.1323 52.5136 12.645 52.5136 15.9005C52.5136 19.156 54.7914 21.6687 57.5661 21.6687C59.0777 21.6687 60.1751 21.0787 60.9206 20.0737V21.3628H63.5918V6.06836H60.9206ZM58.0631 18.9812C56.4065 18.9812 55.1848 17.7358 55.1848 15.9005C55.1848 14.0652 56.4065 12.8198 58.0631 12.8198C59.6989 12.8198 60.9206 14.0652 60.9206 15.9005C60.9206 17.7358 59.6989 18.9812 58.0631 18.9812Z" fill="white"/>
<path d="M73.9033 10.4382V11.7273C73.1579 10.7441 72.0397 10.1323 70.5281 10.1323C67.7741 10.1323 65.4963 12.645 65.4963 15.9005C65.4963 19.156 67.7741 21.6687 70.5281 21.6687C72.0397 21.6687 73.1579 21.0569 73.9033 20.0737V21.3628H76.5745V10.4382H73.9033ZM71.0251 18.9812C69.3892 18.9812 68.1675 17.7358 68.1675 15.9005C68.1675 14.0652 69.3892 12.8198 71.0251 12.8198C72.6816 12.8198 73.9033 14.0652 73.9033 15.9005C73.9033 17.7358 72.6816 18.9812 71.0251 18.9812Z" fill="white"/>
<path d="M90.4714 18.4781V6.06772H87.6139V21.3621H96.0002V18.4781H90.4714Z" fill="black"/>
<path d="M98.8246 9.12661C99.7357 9.12661 100.481 8.34004 100.481 7.40052C100.481 6.46101 99.7357 5.65259 98.8246 5.65259C97.9342 5.65259 97.1887 6.46101 97.1887 7.40052C97.1887 8.34004 97.9342 9.12661 98.8246 9.12661ZM97.4993 21.3621H100.171V10.4376H97.4993V21.3621Z" fill="black"/>
<path d="M108.186 8.47113V5.76183C104.893 5.54334 103.319 7.31313 103.319 10.3283V10.4376H101.829V13.1469H103.319V21.3621H105.991V13.1469H108.186V10.4376H105.991V10.3283C105.991 8.84257 106.798 8.36189 108.186 8.47113Z" fill="black"/>
<path d="M111.283 17.0579H119.089C119.151 16.6864 119.193 16.315 119.193 15.8999C119.193 12.688 117.018 10.1317 113.954 10.1317C110.703 10.1317 108.487 12.6443 108.487 15.8999C108.487 19.1554 110.682 21.668 114.161 21.668C116.149 21.668 117.702 20.8159 118.675 19.3302L116.521 18.0192C116.066 18.6528 115.238 19.1117 114.202 19.1117C112.794 19.1117 111.655 18.4999 111.283 17.0579ZM111.241 14.8729C111.552 13.4746 112.525 12.6662 113.954 12.6662C115.072 12.6662 116.19 13.2998 116.521 14.8729H111.241Z" fill="black"/>
<path d="M90.4714 18.4781V6.06772H87.6139V21.3621H96.0002V18.4781H90.4714Z" fill="black"/>
<path d="M98.8246 9.12661C99.7357 9.12661 100.481 8.34004 100.481 7.40052C100.481 6.46101 99.7357 5.65259 98.8246 5.65259C97.9342 5.65259 97.1887 6.46101 97.1887 7.40052C97.1887 8.34004 97.9342 9.12661 98.8246 9.12661ZM97.4993 21.3621H100.171V10.4376H97.4993V21.3621Z" fill="black"/>
<path d="M108.186 8.47113V5.76183C104.893 5.54334 103.319 7.31313 103.319 10.3283V10.4376H101.829V13.1469H103.319V21.3621H105.991V13.1469H108.186V10.4376H105.991V10.3283C105.991 8.84257 106.798 8.36189 108.186 8.47113Z" fill="black"/>
<path d="M111.283 17.0579H119.089C119.151 16.6864 119.193 16.315 119.193 15.8999C119.193 12.688 117.018 10.1317 113.954 10.1317C110.703 10.1317 108.487 12.6443 108.487 15.8999C108.487 19.1554 110.682 21.668 114.161 21.668C116.149 21.668 117.702 20.8159 118.675 19.3302L116.521 18.0192C116.066 18.6528 115.238 19.1117 114.202 19.1117C112.794 19.1117 111.655 18.4999 111.283 17.0579ZM111.241 14.8729C111.552 13.4746 112.525 12.6662 113.954 12.6662C115.072 12.6662 116.19 13.2998 116.521 14.8729H111.241Z" fill="black"/>
</svg>
