<svg width="120" height="33" viewBox="0 0 120 33" fill="none" xmlns="http://www.w3.org/2000/svg">
<path d="M76.3097 0H5.65173C2.53037 0 0 2.22113 0 4.96104V22.3594C0 25.0993 2.53037 27.3205 5.65173 27.3205H76.3097C79.431 27.3205 81.9614 25.0993 81.9614 22.3594V4.96104C81.9614 2.22113 79.431 0 76.3097 0Z" fill="#E6532E"/>
<path d="M0 32.5333V21.6899L10.4561 26.7942L0 32.5333Z" fill="#E6532E"/>
<path d="M16.2961 13.4315C17.1451 12.7105 17.6628 11.6836 17.6628 10.3726C17.6628 7.8163 15.6956 6.06836 13.2522 6.06836H7.53711V21.3628H13.687C16.1926 21.3628 18.2011 19.5493 18.2011 16.9274C18.2011 15.3324 17.4557 14.1307 16.2961 13.4315ZM13.2522 8.8869C14.1633 8.8869 14.8052 9.60793 14.8052 10.5693C14.8052 11.5307 14.1426 12.2517 13.2522 12.2517H10.3947V8.8869H13.2522ZM13.687 18.5442H10.3947V14.9391H13.687C14.6603 14.9391 15.3643 15.7038 15.3643 16.7308C15.3643 17.7795 14.6603 18.5442 13.687 18.5442Z" fill="white"/>
<path d="M22.369 17.0585H30.1755C30.2377 16.6871 30.2791 16.3156 30.2791 15.9005C30.2791 12.6887 28.1049 10.1323 25.0402 10.1323C21.7893 10.1323 19.5736 12.645 19.5736 15.9005C19.5736 19.156 21.7686 21.6687 25.2473 21.6687C27.2352 21.6687 28.7882 20.8165 29.7614 19.3308L27.6079 18.0199C27.1523 18.6535 26.3241 19.1123 25.2887 19.1123C23.8806 19.1123 22.7418 18.5005 22.369 17.0585ZM22.3276 14.8736C22.6382 13.4752 23.6115 12.6668 25.0402 12.6668C26.1584 12.6668 27.2766 13.3004 27.6079 14.8736H22.3276Z" fill="white"/>
<path d="M34.2035 13.5408C34.2035 12.9508 34.7419 12.645 35.4045 12.645C36.1707 12.645 36.7505 13.0601 37.0611 13.7593L39.3388 12.4483C38.5312 10.9407 37.0818 10.1323 35.4045 10.1323C33.2717 10.1323 31.4702 11.3777 31.4702 13.6063C31.4702 17.4518 36.8126 16.5778 36.8126 18.1728C36.8126 18.8064 36.2328 19.1123 35.3838 19.1123C34.3485 19.1123 33.6444 18.5879 33.3545 17.6921L31.0354 19.0686C31.7808 20.751 33.3131 21.6687 35.3838 21.6687C37.5994 21.6687 39.5459 20.5325 39.5459 18.1728C39.5459 14.1526 34.2035 15.1576 34.2035 13.5408Z" fill="white"/>
<path d="M43.3792 17.0585H51.1857C51.2478 16.6871 51.2893 16.3156 51.2893 15.9005C51.2893 12.6887 49.115 10.1323 46.0504 10.1323C42.7994 10.1323 40.5838 12.645 40.5838 15.9005C40.5838 19.156 42.7787 21.6687 46.2575 21.6687C48.2454 21.6687 49.7984 20.8165 50.7716 19.3308L48.6181 18.0199C48.1625 18.6535 47.3342 19.1123 46.2989 19.1123C44.8908 19.1123 43.752 18.5005 43.3792 17.0585ZM43.3378 14.8736C43.6484 13.4752 44.6217 12.6668 46.0504 12.6668C47.1686 12.6668 48.2868 13.3004 48.6181 14.8736H43.3378Z" fill="white"/>
<path d="M60.921 6.06836V11.7273C60.1756 10.7222 59.0781 10.1323 57.5665 10.1323C54.7918 10.1323 52.514 12.645 52.514 15.9005C52.514 19.156 54.7918 21.6687 57.5665 21.6687C59.0781 21.6687 60.1756 21.0787 60.921 20.0737V21.3628H63.5922V6.06836H60.921ZM58.0635 18.9812C56.4069 18.9812 55.1852 17.7358 55.1852 15.9005C55.1852 14.0652 56.4069 12.8198 58.0635 12.8198C59.6993 12.8198 60.921 14.0652 60.921 15.9005C60.921 17.7358 59.6993 18.9812 58.0635 18.9812Z" fill="white"/>
<path d="M73.9038 10.4382V11.7273C73.1583 10.7441 72.0401 10.1323 70.5285 10.1323C67.7745 10.1323 65.4968 12.645 65.4968 15.9005C65.4968 19.156 67.7745 21.6687 70.5285 21.6687C72.0401 21.6687 73.1583 21.0569 73.9038 20.0737V21.3628H76.5749V10.4382H73.9038ZM71.0255 18.9812C69.3897 18.9812 68.1679 17.7358 68.1679 15.9005C68.1679 14.0652 69.3897 12.8198 71.0255 12.8198C72.682 12.8198 73.9038 14.0652 73.9038 15.9005C73.9038 17.7358 72.682 18.9812 71.0255 18.9812Z" fill="white"/>
<path d="M90.4718 18.4781V6.06772H87.6143V21.3621H96.0005V18.4781H90.4718Z" fill="black"/>
<path d="M98.8249 9.12661C99.736 9.12661 100.481 8.34004 100.481 7.40052C100.481 6.46101 99.736 5.65259 98.8249 5.65259C97.9345 5.65259 97.1891 6.46101 97.1891 7.40052C97.1891 8.34004 97.9345 9.12661 98.8249 9.12661ZM97.4997 21.3621H100.171V10.4376H97.4997V21.3621Z" fill="black"/>
<path d="M108.186 8.47113V5.76183C104.893 5.54334 103.32 7.31313 103.32 10.3283V10.4376H101.829V13.1469H103.32V21.3621H105.991V13.1469H108.186V10.4376H105.991V10.3283C105.991 8.84257 106.799 8.36189 108.186 8.47113Z" fill="black"/>
<path d="M111.283 17.0579H119.09C119.152 16.6864 119.193 16.315 119.193 15.8999C119.193 12.688 117.019 10.1317 113.954 10.1317C110.703 10.1317 108.488 12.6443 108.488 15.8999C108.488 19.1554 110.683 21.668 114.161 21.668C116.149 21.668 117.702 20.8159 118.675 19.3302L116.522 18.0192C116.066 18.6528 115.238 19.1117 114.203 19.1117C112.795 19.1117 111.656 18.4999 111.283 17.0579ZM111.242 14.8729C111.552 13.4746 112.525 12.6662 113.954 12.6662C115.072 12.6662 116.191 13.2998 116.522 14.8729H111.242Z" fill="black"/>
<path d="M90.4718 18.4781V6.06772H87.6143V21.3621H96.0005V18.4781H90.4718Z" fill="black"/>
<path d="M98.8249 9.12661C99.736 9.12661 100.481 8.34004 100.481 7.40052C100.481 6.46101 99.736 5.65259 98.8249 5.65259C97.9345 5.65259 97.1891 6.46101 97.1891 7.40052C97.1891 8.34004 97.9345 9.12661 98.8249 9.12661ZM97.4997 21.3621H100.171V10.4376H97.4997V21.3621Z" fill="black"/>
<path d="M108.186 8.47113V5.76183C104.893 5.54334 103.32 7.31313 103.32 10.3283V10.4376H101.829V13.1469H103.32V21.3621H105.991V13.1469H108.186V10.4376H105.991V10.3283C105.991 8.84257 106.799 8.36189 108.186 8.47113Z" fill="black"/>
<path d="M111.283 17.0579H119.09C119.152 16.6864 119.193 16.315 119.193 15.8999C119.193 12.688 117.019 10.1317 113.954 10.1317C110.703 10.1317 108.488 12.6443 108.488 15.8999C108.488 19.1554 110.683 21.668 114.161 21.668C116.149 21.668 117.702 20.8159 118.675 19.3302L116.522 18.0192C116.066 18.6528 115.238 19.1117 114.203 19.1117C112.795 19.1117 111.656 18.4999 111.283 17.0579ZM111.242 14.8729C111.552 13.4746 112.525 12.6662 113.954 12.6662C115.072 12.6662 116.191 13.2998 116.522 14.8729H111.242Z" fill="black"/>
</svg>
