<svg xmlns="http://www.w3.org/2000/svg" style="display: none;"><symbol id="entry" viewBox="0 0 17 19"><title>entry</title><rect x="1" width="15.2" height="19" rx="3" fill="#EE7D57"/><path d="M6.68603 4.91296L10.947 9.17392M10.947 9.17392L6.68603 13.4349M10.947 9.17392L0.999927 9.17393" stroke="white" stroke-width="2"/></symbol><symbol id="user" viewBox="0 0 19 19"><path d="M9.49986 9.29225C11.6123 9.29225 13.325 7.21213 13.325 4.64615C13.325 2.08012 12.7627 0 9.49986 0C6.23702 0 5.67462 2.08012 5.67462 4.64615C5.67462 7.21213 7.38728 9.29225 9.49986 9.29225Z"/><path d="M2.27498 16.3863C2.27433 16.2298 2.27368 16.3422 2.27498 16.3863V16.3863Z"/><path d="M16.7245 16.5086C16.7265 16.4657 16.7252 16.2114 16.7245 16.5086V16.5086Z"/><path d="M16.7163 16.1986C16.6455 11.7286 16.0617 10.4549 11.5943 9.64868C11.5943 9.64868 10.9655 10.45 9.49978 10.45C8.03407 10.45 7.40511 9.64868 7.40511 9.64868C2.98653 10.4461 2.36724 11.701 2.28581 16.0534C2.27913 16.4088 2.27604 16.4275 2.27484 16.3863C2.27511 16.4636 2.27544 16.6065 2.27544 16.8559C2.27544 16.8559 3.339 18.9999 9.49978 18.9999C15.6604 18.9999 16.7241 16.8559 16.7241 16.8559C16.7241 16.6957 16.7242 16.5843 16.7244 16.5085C16.7232 16.534 16.7208 16.4846 16.7163 16.1986Z"/></symbol><symbol id="arrow" viewBox="0 0 17 16"><path d="M16.7071 8.70711C17.0976 8.31658 17.0976 7.68342 16.7071 7.29289L10.3431 0.928931C9.95262 0.538407 9.31946 0.538407 8.92893 0.928931C8.53841 1.31946 8.53841 1.95262 8.92893 2.34315L14.5858 8L8.92893 13.6569C8.53841 14.0474 8.53841 14.6805 8.92893 15.0711C9.31946 15.4616 9.95262 15.4616 10.3431 15.0711L16.7071 8.70711ZM8.74229e-08 9L16 9L16 7L-8.74229e-08 7L8.74229e-08 9Z"/></symbol><symbol id="vk" viewBox="0 0 548.358 548.358"><path d="M545.451,400.298c-0.664-1.431-1.283-2.618-1.858-3.569c-9.514-17.135-27.695-38.167-54.532-63.102l-0.567-0.571 l-0.284-0.28l-0.287-0.287h-0.288c-12.18-11.611-19.893-19.418-23.123-23.415c-5.91-7.614-7.234-15.321-4.004-23.13 c2.282-5.9,10.854-18.36,25.696-37.397c7.807-10.089,13.99-18.175,18.556-24.267c32.931-43.78,47.208-71.756,42.828-83.939 l-1.701-2.847c-1.143-1.714-4.093-3.282-8.846-4.712c-4.764-1.427-10.853-1.663-18.278-0.712l-82.224,0.568 c-1.332-0.472-3.234-0.428-5.712,0.144c-2.475,0.572-3.713,0.859-3.713,0.859l-1.431,0.715l-1.136,0.859 c-0.952,0.568-1.999,1.567-3.142,2.995c-1.137,1.423-2.088,3.093-2.848,4.996c-8.952,23.031-19.13,44.444-30.553,64.238 c-7.043,11.803-13.511,22.032-19.418,30.693c-5.899,8.658-10.848,15.037-14.842,19.126c-4,4.093-7.61,7.372-10.852,9.849 c-3.237,2.478-5.708,3.525-7.419,3.142c-1.715-0.383-3.33-0.763-4.859-1.143c-2.663-1.714-4.805-4.045-6.42-6.995 c-1.622-2.95-2.714-6.663-3.285-11.136c-0.568-4.476-0.904-8.326-1-11.563c-0.089-3.233-0.048-7.806,0.145-13.706 c0.198-5.903,0.287-9.897,0.287-11.991c0-7.234,0.141-15.085,0.424-23.555c0.288-8.47,0.521-15.181,0.716-20.125 c0.194-4.949,0.284-10.185,0.284-15.705s-0.336-9.849-1-12.991c-0.656-3.138-1.663-6.184-2.99-9.137 c-1.335-2.95-3.289-5.232-5.853-6.852c-2.569-1.618-5.763-2.902-9.564-3.856c-10.089-2.283-22.936-3.518-38.547-3.71 c-35.401-0.38-58.148,1.906-68.236,6.855c-3.997,2.091-7.614,4.948-10.848,8.562c-3.427,4.189-3.905,6.475-1.431,6.851 c11.422,1.711,19.508,5.804,24.267,12.275l1.715,3.429c1.334,2.474,2.666,6.854,3.999,13.134c1.331,6.28,2.19,13.227,2.568,20.837 c0.95,13.897,0.95,25.793,0,35.689c-0.953,9.9-1.853,17.607-2.712,23.127c-0.859,5.52-2.143,9.993-3.855,13.418 c-1.715,3.426-2.856,5.52-3.428,6.28c-0.571,0.76-1.047,1.239-1.425,1.427c-2.474,0.948-5.047,1.431-7.71,1.431 c-2.667,0-5.901-1.334-9.707-4c-3.805-2.666-7.754-6.328-11.847-10.992c-4.093-4.665-8.709-11.184-13.85-19.558 c-5.137-8.374-10.467-18.271-15.987-29.691l-4.567-8.282c-2.855-5.328-6.755-13.086-11.704-23.267 c-4.952-10.185-9.329-20.037-13.134-29.554c-1.521-3.997-3.806-7.04-6.851-9.134l-1.429-0.859c-0.95-0.76-2.475-1.567-4.567-2.427 c-2.095-0.859-4.281-1.475-6.567-1.854l-78.229,0.568c-7.994,0-13.418,1.811-16.274,5.428l-1.143,1.711 C0.288,140.146,0,141.668,0,143.763c0,2.094,0.571,4.664,1.714,7.707c11.42,26.84,23.839,52.725,37.257,77.659 c13.418,24.934,25.078,45.019,34.973,60.237c9.897,15.229,19.985,29.602,30.264,43.112c10.279,13.515,17.083,22.176,20.412,25.981 c3.333,3.812,5.951,6.662,7.854,8.565l7.139,6.851c4.568,4.569,11.276,10.041,20.127,16.416 c8.853,6.379,18.654,12.659,29.408,18.85c10.756,6.181,23.269,11.225,37.546,15.126c14.275,3.905,28.169,5.472,41.684,4.716h32.834 c6.659-0.575,11.704-2.669,15.133-6.283l1.136-1.431c0.764-1.136,1.479-2.901,2.139-5.276c0.668-2.379,1-5,1-7.851 c-0.195-8.183,0.428-15.558,1.852-22.124c1.423-6.564,3.045-11.513,4.859-14.846c1.813-3.33,3.859-6.14,6.136-8.418 c2.282-2.283,3.908-3.666,4.862-4.142c0.948-0.479,1.705-0.804,2.276-0.999c4.568-1.522,9.944-0.048,16.136,4.429 c6.187,4.473,11.99,9.996,17.418,16.56c5.425,6.57,11.943,13.941,19.555,22.124c7.617,8.186,14.277,14.271,19.985,18.274 l5.708,3.426c3.812,2.286,8.761,4.38,14.853,6.283c6.081,1.902,11.409,2.378,15.984,1.427l73.087-1.14 c7.229,0,12.854-1.197,16.844-3.572c3.998-2.379,6.373-5,7.139-7.851c0.764-2.854,0.805-6.092,0.145-9.712 C546.782,404.25,546.115,401.725,545.451,400.298z"/></symbol><symbol id="facebook" viewBox="0 0 96.124 96.123"><path d="M72.089,0.02L59.624,0C45.62,0,36.57,9.285,36.57,23.656v10.907H24.037c-1.083,0-1.96,0.878-1.96,1.961v15.803 c0,1.083,0.878,1.96,1.96,1.96h12.533v39.876c0,1.083,0.877,1.96,1.96,1.96h16.352c1.083,0,1.96-0.878,1.96-1.96V54.287h14.654 c1.083,0,1.96-0.877,1.96-1.96l0.006-15.803c0-0.52-0.207-1.018-0.574-1.386c-0.367-0.368-0.867-0.575-1.387-0.575H56.842v-9.246 c0-4.444,1.059-6.7,6.848-6.7l8.397-0.003c1.082,0,1.959-0.878,1.959-1.96V1.98C74.046,0.899,73.17,0.022,72.089,0.02z"/></symbol><symbol id="twitter" viewBox="0 0 512 512"><path d="M512,97.248c-19.04,8.352-39.328,13.888-60.48,16.576c21.76-12.992,38.368-33.408,46.176-58.016 c-20.288,12.096-42.688,20.64-66.56,25.408C411.872,60.704,384.416,48,354.464,48c-58.112,0-104.896,47.168-104.896,104.992 c0,8.32,0.704,16.32,2.432,23.936c-87.264-4.256-164.48-46.08-216.352-109.792c-9.056,15.712-14.368,33.696-14.368,53.056 c0,36.352,18.72,68.576,46.624,87.232c-16.864-0.32-33.408-5.216-47.424-12.928c0,0.32,0,0.736,0,1.152 c0,51.008,36.384,93.376,84.096,103.136c-8.544,2.336-17.856,3.456-27.52,3.456c-6.72,0-13.504-0.384-19.872-1.792 c13.6,41.568,52.192,72.128,98.08,73.12c-35.712,27.936-81.056,44.768-130.144,44.768c-8.608,0-16.864-0.384-25.12-1.44 C46.496,446.88,101.6,464,161.024,464c193.152,0,298.752-160,298.752-298.688c0-4.64-0.16-9.12-0.384-13.568 C480.224,136.96,497.728,118.496,512,97.248z"/></symbol><symbol id="bookmark" viewBox="0 0 26 33"><path d="M0 0H26V33L13 24.6102L0 33V0Z"/></symbol><symbol id="checked" viewBox="0 0 11 11"><path d="M10.8378 1.28309C10.6215 1.06672 10.2708 1.0668 10.0546 1.28316L5.08444 6.25417L2.79488 3.96454C2.57852 3.74825 2.22783 3.74817 2.01168 3.96447C1.79532 4.18076 1.79532 4.53145 2.01161 4.74766L4.69284 7.42904C4.79674 7.53294 4.93756 7.59128 5.08452 7.59128C5.23139 7.59128 5.37229 7.53294 5.47619 7.42904L10.838 2.06628C11.0541 1.85007 11.0541 1.49938 10.8378 1.28309Z" fill="#216841"/><path d="M9.64192 4.83255C9.33606 4.83255 9.08808 5.08044 9.08808 5.38638V9.48994H1.10767V1.50953H7.42658C7.73251 1.50953 7.98041 1.26163 7.98041 0.955692C7.98041 0.649826 7.73251 0.401855 7.42658 0.401855H0.553836C0.247971 0.401855 0 0.649753 0 0.955692V10.0438C0 10.3497 0.247971 10.5976 0.553836 10.5976H9.64192C9.94786 10.5976 10.1958 10.3497 10.1958 10.0438V5.38638C10.1958 5.08052 9.94786 4.83255 9.64192 4.83255Z" fill="#216841"/></symbol><symbol id="dollar" viewBox="0 0 17 17"><circle cx="8.5" cy="8.5" r="8.5"/><path d="M11.812 10.452C11.812 8.632 10.369 8.164 9.186 7.696V5.525C9.641 5.642 9.966 5.954 10.174 6.474L11.682 5.59C11.188 4.485 10.265 3.887 9.186 3.757V2.6H8.315V3.731C6.95 3.861 5.728 4.745 5.728 6.357C5.728 8.086 7.067 8.671 8.276 9.139C8.289 9.139 8.302 9.152 8.315 9.152V11.401C7.6 11.297 7.145 10.894 6.872 10.218L5.325 11.115C5.78 12.324 6.859 13.065 8.315 13.169V14.3H9.186V13.156C10.694 12.974 11.812 12.025 11.812 10.452ZM7.509 6.37C7.509 5.928 7.795 5.59 8.315 5.486V7.306C7.717 7.007 7.509 6.747 7.509 6.37ZM9.186 11.375V9.503C9.719 9.75 10.018 10.01 10.018 10.465C10.018 10.868 9.771 11.245 9.186 11.375Z" fill="white"/></symbol><symbol id="book" viewBox="0 0 22 22"><path d="M3.36519 2.59814C3.3646 2.59814 3.36393 2.59814 3.36334 2.59814C3.15527 2.59814 2.95956 2.67926 2.81178 2.82666C2.66237 2.9757 2.58008 3.17415 2.58008 3.38541V15.1903C2.58008 15.6232 2.93363 15.9762 3.3683 15.9773C5.20075 15.9817 8.27084 16.3636 10.3888 18.58V6.22586C10.3888 6.07912 10.3513 5.94127 10.2806 5.82719C8.54225 3.02778 5.20179 2.60244 3.36519 2.59814Z"/><path d="M19.4199 15.1894V3.38443C19.4199 3.17317 19.3376 2.97472 19.1882 2.82569C19.0405 2.67828 18.8446 2.59717 18.6368 2.59717C18.6361 2.59717 18.6354 2.59717 18.6348 2.59717C16.7983 2.60154 13.4579 3.02687 11.7195 5.82629C11.6487 5.94036 11.6113 6.07822 11.6113 6.22496V18.579C13.7293 16.3626 16.7993 15.9807 18.6318 15.9763C19.0664 15.9752 19.4199 15.6222 19.4199 15.1894Z"/><path d="M21.2126 5.31982H20.6418V15.1896C20.6418 16.2948 19.7413 17.1961 18.6343 17.1988C17.08 17.2025 14.5172 17.5065 12.7021 19.2243C15.8413 18.4557 19.1505 18.9554 21.0364 19.3851C21.2719 19.4388 21.5152 19.3834 21.7039 19.233C21.8919 19.083 21.9997 18.8588 21.9997 18.6181V6.10694C21.9998 5.67294 21.6466 5.31982 21.2126 5.31982Z"/><path d="M1.35793 15.1896V5.31982H0.787114C0.353186 5.31982 0 5.67294 0 6.10694V18.6179C0 18.8586 0.107852 19.0828 0.295853 19.2328C0.484372 19.3831 0.727484 19.4387 0.963337 19.3849C2.84927 18.9551 6.15854 18.4555 9.29751 19.2241C7.48254 17.5063 4.91972 17.2025 3.36542 17.1988C2.25853 17.1961 1.35793 16.2948 1.35793 15.1896Z"/></symbol><symbol id="plus" viewBox="0 0 17 17"><circle cx="8.5" cy="8.5" r="8.5"/><path d="M12.048 7.424H9.408V4.8H7.472V7.424H4.848V9.36H7.472V12H9.408V9.36H12.048V7.424Z" fill="white"/></symbol><symbol id="message" viewBox="0 0 17 19"><path d="M15 1.66797H1.66667C0.75 1.66797 0 2.41797 0 3.33464V18.3346L3.33333 15.0013H15C15.9167 15.0013 16.6667 14.2513 16.6667 13.3346V3.33464C16.6667 2.41797 15.9167 1.66797 15 1.66797Z"/><path d="M3.74268 10.0923C3.74268 9.73682 3.83789 9.4681 4.02832 9.28613C4.21875 9.10417 4.49593 9.01318 4.85986 9.01318C5.2111 9.01318 5.48193 9.10628 5.67236 9.29248C5.86702 9.47868 5.96436 9.74528 5.96436 10.0923C5.96436 10.4266 5.86702 10.6911 5.67236 10.8857C5.4777 11.0762 5.20687 11.1714 4.85986 11.1714C4.50439 11.1714 4.22933 11.0783 4.03467 10.8921C3.84001 10.7017 3.74268 10.4351 3.74268 10.0923ZM7.44971 10.0923C7.44971 9.73682 7.54492 9.4681 7.73535 9.28613C7.92578 9.10417 8.20296 9.01318 8.56689 9.01318C8.91813 9.01318 9.18896 9.10628 9.37939 9.29248C9.57406 9.47868 9.67139 9.74528 9.67139 10.0923C9.67139 10.4266 9.57406 10.6911 9.37939 10.8857C9.18473 11.0762 8.9139 11.1714 8.56689 11.1714C8.21143 11.1714 7.93636 11.0783 7.7417 10.8921C7.54704 10.7017 7.44971 10.4351 7.44971 10.0923ZM11.1567 10.0923C11.1567 9.73682 11.252 9.4681 11.4424 9.28613C11.6328 9.10417 11.91 9.01318 12.2739 9.01318C12.6252 9.01318 12.896 9.10628 13.0864 9.29248C13.2811 9.47868 13.3784 9.74528 13.3784 10.0923C13.3784 10.4266 13.2811 10.6911 13.0864 10.8857C12.8918 11.0762 12.6209 11.1714 12.2739 11.1714C11.9185 11.1714 11.6434 11.0783 11.4487 10.8921C11.2541 10.7017 11.1567 10.4351 11.1567 10.0923Z" fill="white"/></symbol></svg>