<svg xmlns="http://www.w3.org/2000/svg" style="display: none;"><symbol id="entry" viewBox="0 0 17 19"><title>entry</title><rect x="1" width="15.2" height="19" rx="3" fill="#EE7D57"/><path d="M6.68603 4.91296L10.947 9.17392M10.947 9.17392L6.68603 13.4349M10.947 9.17392L0.999927 9.17393" stroke="white" stroke-width="2"/></symbol><symbol id="user" viewBox="0 0 19 19"><path d="M9.49986 9.29225C11.6123 9.29225 13.325 7.21213 13.325 4.64615C13.325 2.08012 12.7627 0 9.49986 0C6.23702 0 5.67462 2.08012 5.67462 4.64615C5.67462 7.21213 7.38728 9.29225 9.49986 9.29225Z" fill="#EE7D57"/><path d="M2.27498 16.3863C2.27433 16.2298 2.27368 16.3422 2.27498 16.3863V16.3863Z" fill="#EE7D57"/><path d="M16.7245 16.5086C16.7265 16.4657 16.7252 16.2114 16.7245 16.5086V16.5086Z" fill="#EE7D57"/><path d="M16.7163 16.1986C16.6455 11.7286 16.0617 10.4549 11.5943 9.64868C11.5943 9.64868 10.9655 10.45 9.49978 10.45C8.03407 10.45 7.40511 9.64868 7.40511 9.64868C2.98653 10.4461 2.36724 11.701 2.28581 16.0534C2.27913 16.4088 2.27604 16.4275 2.27484 16.3863C2.27511 16.4636 2.27544 16.6065 2.27544 16.8559C2.27544 16.8559 3.339 18.9999 9.49978 18.9999C15.6604 18.9999 16.7241 16.8559 16.7241 16.8559C16.7241 16.6957 16.7242 16.5843 16.7244 16.5085C16.7232 16.534 16.7208 16.4846 16.7163 16.1986Z" fill="#EE7D57"/></symbol><symbol id="arrow" viewBox="0 0 17 16"><path d="M16.7071 8.70711C17.0976 8.31658 17.0976 7.68342 16.7071 7.29289L10.3431 0.928931C9.95262 0.538407 9.31946 0.538407 8.92893 0.928931C8.53841 1.31946 8.53841 1.95262 8.92893 2.34315L14.5858 8L8.92893 13.6569C8.53841 14.0474 8.53841 14.6805 8.92893 15.0711C9.31946 15.4616 9.95262 15.4616 10.3431 15.0711L16.7071 8.70711ZM8.74229e-08 9L16 9L16 7L-8.74229e-08 7L8.74229e-08 9Z"/></symbol><symbol id="vk" viewBox="0 0 548.358 548.358"><path d="M545.451,400.298c-0.664-1.431-1.283-2.618-1.858-3.569c-9.514-17.135-27.695-38.167-54.532-63.102l-0.567-0.571 l-0.284-0.28l-0.287-0.287h-0.288c-12.18-11.611-19.893-19.418-23.123-23.415c-5.91-7.614-7.234-15.321-4.004-23.13 c2.282-5.9,10.854-18.36,25.696-37.397c7.807-10.089,13.99-18.175,18.556-24.267c32.931-43.78,47.208-71.756,42.828-83.939 l-1.701-2.847c-1.143-1.714-4.093-3.282-8.846-4.712c-4.764-1.427-10.853-1.663-18.278-0.712l-82.224,0.568 c-1.332-0.472-3.234-0.428-5.712,0.144c-2.475,0.572-3.713,0.859-3.713,0.859l-1.431,0.715l-1.136,0.859 c-0.952,0.568-1.999,1.567-3.142,2.995c-1.137,1.423-2.088,3.093-2.848,4.996c-8.952,23.031-19.13,44.444-30.553,64.238 c-7.043,11.803-13.511,22.032-19.418,30.693c-5.899,8.658-10.848,15.037-14.842,19.126c-4,4.093-7.61,7.372-10.852,9.849 c-3.237,2.478-5.708,3.525-7.419,3.142c-1.715-0.383-3.33-0.763-4.859-1.143c-2.663-1.714-4.805-4.045-6.42-6.995 c-1.622-2.95-2.714-6.663-3.285-11.136c-0.568-4.476-0.904-8.326-1-11.563c-0.089-3.233-0.048-7.806,0.145-13.706 c0.198-5.903,0.287-9.897,0.287-11.991c0-7.234,0.141-15.085,0.424-23.555c0.288-8.47,0.521-15.181,0.716-20.125 c0.194-4.949,0.284-10.185,0.284-15.705s-0.336-9.849-1-12.991c-0.656-3.138-1.663-6.184-2.99-9.137 c-1.335-2.95-3.289-5.232-5.853-6.852c-2.569-1.618-5.763-2.902-9.564-3.856c-10.089-2.283-22.936-3.518-38.547-3.71 c-35.401-0.38-58.148,1.906-68.236,6.855c-3.997,2.091-7.614,4.948-10.848,8.562c-3.427,4.189-3.905,6.475-1.431,6.851 c11.422,1.711,19.508,5.804,24.267,12.275l1.715,3.429c1.334,2.474,2.666,6.854,3.999,13.134c1.331,6.28,2.19,13.227,2.568,20.837 c0.95,13.897,0.95,25.793,0,35.689c-0.953,9.9-1.853,17.607-2.712,23.127c-0.859,5.52-2.143,9.993-3.855,13.418 c-1.715,3.426-2.856,5.52-3.428,6.28c-0.571,0.76-1.047,1.239-1.425,1.427c-2.474,0.948-5.047,1.431-7.71,1.431 c-2.667,0-5.901-1.334-9.707-4c-3.805-2.666-7.754-6.328-11.847-10.992c-4.093-4.665-8.709-11.184-13.85-19.558 c-5.137-8.374-10.467-18.271-15.987-29.691l-4.567-8.282c-2.855-5.328-6.755-13.086-11.704-23.267 c-4.952-10.185-9.329-20.037-13.134-29.554c-1.521-3.997-3.806-7.04-6.851-9.134l-1.429-0.859c-0.95-0.76-2.475-1.567-4.567-2.427 c-2.095-0.859-4.281-1.475-6.567-1.854l-78.229,0.568c-7.994,0-13.418,1.811-16.274,5.428l-1.143,1.711 C0.288,140.146,0,141.668,0,143.763c0,2.094,0.571,4.664,1.714,7.707c11.42,26.84,23.839,52.725,37.257,77.659 c13.418,24.934,25.078,45.019,34.973,60.237c9.897,15.229,19.985,29.602,30.264,43.112c10.279,13.515,17.083,22.176,20.412,25.981 c3.333,3.812,5.951,6.662,7.854,8.565l7.139,6.851c4.568,4.569,11.276,10.041,20.127,16.416 c8.853,6.379,18.654,12.659,29.408,18.85c10.756,6.181,23.269,11.225,37.546,15.126c14.275,3.905,28.169,5.472,41.684,4.716h32.834 c6.659-0.575,11.704-2.669,15.133-6.283l1.136-1.431c0.764-1.136,1.479-2.901,2.139-5.276c0.668-2.379,1-5,1-7.851 c-0.195-8.183,0.428-15.558,1.852-22.124c1.423-6.564,3.045-11.513,4.859-14.846c1.813-3.33,3.859-6.14,6.136-8.418 c2.282-2.283,3.908-3.666,4.862-4.142c0.948-0.479,1.705-0.804,2.276-0.999c4.568-1.522,9.944-0.048,16.136,4.429 c6.187,4.473,11.99,9.996,17.418,16.56c5.425,6.57,11.943,13.941,19.555,22.124c7.617,8.186,14.277,14.271,19.985,18.274 l5.708,3.426c3.812,2.286,8.761,4.38,14.853,6.283c6.081,1.902,11.409,2.378,15.984,1.427l73.087-1.14 c7.229,0,12.854-1.197,16.844-3.572c3.998-2.379,6.373-5,7.139-7.851c0.764-2.854,0.805-6.092,0.145-9.712 C546.782,404.25,546.115,401.725,545.451,400.298z"/></symbol><symbol id="facebook" viewBox="0 0 96.124 96.123"><path d="M72.089,0.02L59.624,0C45.62,0,36.57,9.285,36.57,23.656v10.907H24.037c-1.083,0-1.96,0.878-1.96,1.961v15.803 c0,1.083,0.878,1.96,1.96,1.96h12.533v39.876c0,1.083,0.877,1.96,1.96,1.96h16.352c1.083,0,1.96-0.878,1.96-1.96V54.287h14.654 c1.083,0,1.96-0.877,1.96-1.96l0.006-15.803c0-0.52-0.207-1.018-0.574-1.386c-0.367-0.368-0.867-0.575-1.387-0.575H56.842v-9.246 c0-4.444,1.059-6.7,6.848-6.7l8.397-0.003c1.082,0,1.959-0.878,1.959-1.96V1.98C74.046,0.899,73.17,0.022,72.089,0.02z"/></symbol><symbol id="twitter" viewBox="0 0 512 512"><path d="M512,97.248c-19.04,8.352-39.328,13.888-60.48,16.576c21.76-12.992,38.368-33.408,46.176-58.016 c-20.288,12.096-42.688,20.64-66.56,25.408C411.872,60.704,384.416,48,354.464,48c-58.112,0-104.896,47.168-104.896,104.992 c0,8.32,0.704,16.32,2.432,23.936c-87.264-4.256-164.48-46.08-216.352-109.792c-9.056,15.712-14.368,33.696-14.368,53.056 c0,36.352,18.72,68.576,46.624,87.232c-16.864-0.32-33.408-5.216-47.424-12.928c0,0.32,0,0.736,0,1.152 c0,51.008,36.384,93.376,84.096,103.136c-8.544,2.336-17.856,3.456-27.52,3.456c-6.72,0-13.504-0.384-19.872-1.792 c13.6,41.568,52.192,72.128,98.08,73.12c-35.712,27.936-81.056,44.768-130.144,44.768c-8.608,0-16.864-0.384-25.12-1.44 C46.496,446.88,101.6,464,161.024,464c193.152,0,298.752-160,298.752-298.688c0-4.64-0.16-9.12-0.384-13.568 C480.224,136.96,497.728,118.496,512,97.248z"/></symbol><symbol id="bookmark" viewBox="0 0 26 33"><path d="M0 0H26V33L13 24.6102L0 33V0Z"/></symbol><symbol id="checked" viewBox="0 0 11 11"><path d="M10.8378 1.28309C10.6215 1.06672 10.2708 1.0668 10.0546 1.28316L5.08444 6.25417L2.79488 3.96454C2.57852 3.74825 2.22783 3.74817 2.01168 3.96447C1.79532 4.18076 1.79532 4.53145 2.01161 4.74766L4.69284 7.42904C4.79674 7.53294 4.93756 7.59128 5.08452 7.59128C5.23139 7.59128 5.37229 7.53294 5.47619 7.42904L10.838 2.06628C11.0541 1.85007 11.0541 1.49938 10.8378 1.28309Z" fill="#216841"/><path d="M9.64192 4.83255C9.33606 4.83255 9.08808 5.08044 9.08808 5.38638V9.48994H1.10767V1.50953H7.42658C7.73251 1.50953 7.98041 1.26163 7.98041 0.955692C7.98041 0.649826 7.73251 0.401855 7.42658 0.401855H0.553836C0.247971 0.401855 0 0.649753 0 0.955692V10.0438C0 10.3497 0.247971 10.5976 0.553836 10.5976H9.64192C9.94786 10.5976 10.1958 10.3497 10.1958 10.0438V5.38638C10.1958 5.08052 9.94786 4.83255 9.64192 4.83255Z" fill="#216841"/></symbol></svg>