<svg xmlns="http://www.w3.org/2000/svg" style="display: none;"><symbol id="entry" viewBox="0 0 17 19"><title>entry</title><rect x="1" width="15.2" height="19" rx="3" fill="#EE7D57"/><path d="M6.68603 4.91296L10.947 9.17392M10.947 9.17392L6.68603 13.4349M10.947 9.17392L0.999927 9.17393" stroke="white" stroke-width="2"/></symbol><symbol id="user" viewBox="0 0 19 19"><title>user</title><path d="M9.49986 9.29225C11.6123 9.29225 13.325 7.21213 13.325 4.64615C13.325 2.08012 12.7627 0 9.49986 0C6.23702 0 5.67462 2.08012 5.67462 4.64615C5.67462 7.21213 7.38728 9.29225 9.49986 9.29225Z" fill="#EE7D57"/><path d="M2.27498 16.3863C2.27433 16.2298 2.27368 16.3422 2.27498 16.3863V16.3863Z" fill="#EE7D57"/><path d="M16.7245 16.5086C16.7265 16.4657 16.7252 16.2114 16.7245 16.5086V16.5086Z" fill="#EE7D57"/><path d="M16.7163 16.1986C16.6455 11.7286 16.0617 10.4549 11.5943 9.64868C11.5943 9.64868 10.9655 10.45 9.49978 10.45C8.03407 10.45 7.40511 9.64868 7.40511 9.64868C2.98653 10.4461 2.36724 11.701 2.28581 16.0534C2.27913 16.4088 2.27604 16.4275 2.27484 16.3863C2.27511 16.4636 2.27544 16.6065 2.27544 16.8559C2.27544 16.8559 3.339 18.9999 9.49978 18.9999C15.6604 18.9999 16.7241 16.8559 16.7241 16.8559C16.7241 16.6957 16.7242 16.5843 16.7244 16.5085C16.7232 16.534 16.7208 16.4846 16.7163 16.1986Z" fill="#EE7D57"/></symbol></svg>