<?xml version="1.0" standalone="no"?>
<!DOCTYPE svg PUBLIC "-//W3C//DTD SVG 20010904//EN"
 "http://www.w3.org/TR/2001/REC-SVG-20010904/DTD/svg10.dtd">
<svg version="1.0" xmlns="http://www.w3.org/2000/svg"
 width="260.000000pt" height="260.000000pt" viewBox="0 0 260.000000 260.000000"
 preserveAspectRatio="xMidYMid meet">
<metadata>
Created by potrace 1.11, written by Peter Selinger 2001-2013
</metadata>
<g transform="translate(0.000000,260.000000) scale(0.100000,-0.100000)"
fill="#000000" stroke="none">
<path d="M635 2550 c-3 -5 -15 -10 -26 -10 -71 0 -228 -125 -263 -210 -10 -25
-22 -53 -27 -62 -8 -17 -14 -2218 -5 -2218 2 0 75 40 162 88 88 49 191 106
229 127 39 21 104 57 145 80 41 23 101 56 132 74 l57 31 460 0 c296 0 462 4
466 10 3 6 15 10 25 10 33 0 141 62 189 109 25 25 57 69 70 96 13 28 28 58 33
67 4 10 8 354 8 764 l0 746 -31 66 c-18 36 -53 86 -78 111 -49 49 -155 111
-189 111 -12 0 -24 5 -27 10 -9 14 -1321 14 -1330 0z m757 -461 c139 -30 233
-117 263 -246 8 -32 14 -72 15 -89 0 -49 -28 -128 -64 -182 l-34 -50 35 -34
c160 -153 123 -429 -73 -538 -71 -40 -145 -50 -391 -50 -127 0 -238 3 -247 6
-14 6 -16 67 -16 593 0 323 3 591 7 594 11 12 448 8 505 -4z"/>
<path d="M1110 1746 l0 -126 120 0 c133 0 166 9 190 56 8 15 15 49 14 76 0 41
-6 54 -32 81 l-32 32 -130 3 -130 4 0 -126z"/>
<path d="M1114 1387 c-2 -7 -3 -67 -2 -133 l3 -119 130 -3 c111 -2 135 0 165
16 48 26 72 74 67 136 -4 42 -10 55 -41 83 l-36 33 -140 0 c-107 0 -142 -3
-146 -13z"/>
</g>
</svg>
